<?xml version="1.0" encoding="utf-8"?>
<!-- Generator: Adobe Illustrator 19.2.1, SVG Export Plug-In . SVG Version: 6.00 Build 0)  -->
<svg version="1.1" id="layer" xmlns="http://www.w3.org/2000/svg" xmlns:xlink="http://www.w3.org/1999/xlink" x="0px" y="0px"
	 viewBox="0 0 652 652" style="enable-background:new 0 0 652 652;" xml:space="preserve">
<style type="text/css">
	.st0{fill:#000C9A;}
	.st1{fill:#FF8A00;}
</style>
<path class="st0" d="M369,314.4c2.4-0.7,2.2-0.9,5.7-1.2c0,0,5.3-0.5,7.7,3.6c0,0,0.3-0.7,0.4-1.2c0.7-2.4,1.1-2.9,1.3-4.5
	c0.2-1.6-1.4-1.5-1.4-1.5c-3-0.6-4.7-0.5-7.2-0.5c-13.6,0-22.4,14-24.7,22.6h-0.4V309c-3.8,3.8-10,4.2-16.1,4.2h-16.1v3.1h16.1v72.4
	h-16.1v3.1h49.6v-3.1h-17.4v-39.3C350.5,324.5,365.1,315.5,369,314.4"/>
<path class="st0" d="M164,270h-17v-2.9h54.7c26.7,0,41.6,13.5,41.6,28c0,27.4-23.1,29.9-36.1,31.2v0.4c19.6,1.6,39.5,10,39.5,32.8
	c0,24.2-21.5,33.9-38.4,33.9h-61.3v-2.9h17V270 M182.3,324.9h11.8c16.3,0,30.8-3.6,30.8-28c0-9.5-7.2-26.9-33.4-26.9h-9.3V324.9z
	 M182.3,390.5h15.1c18.8,0,28.9-11.7,28.9-32.6c0-20.1-13.8-30.1-34.2-30.1h-9.7V390.5z"/>
<path class="st0" d="M270.2,362.1C270,375.7,272,391,290,391c16.1,0,28-10.7,30.7-26.4h3.1c-3.1,17.6-16.1,29.5-33.7,29.5
	c-22.4,0-38.1-17.2-38.1-42.5c0-18.6,14.9-42.5,35.8-42.5c22.6,0,34.3,25.3,34.3,33.3c0,1.1-0.6,1.7-1.7,1.7h-50V362.1 M303.6,335.6
	c0-12.3-3.3-23.6-15.9-23.6c-13.4,0-17.4,11.3-17.4,23.6v5.4h32c1,0,1.3-0.6,1.3-1.3V335.6z"/>
<path class="st0" d="M467.5,362.1c-0.2,13.6,1.7,28.9,19.7,28.9c16.1,0,28-10.7,30.6-26.4h3.1c-3.1,17.6-16.1,29.5-33.7,29.5
	c-22.4,0-38.1-17.2-38.1-42.5c0-18.6,14.9-42.5,35.8-42.5c22.6,0,34.3,25.3,34.3,33.3c0,1.1-0.6,1.7-1.7,1.7h-50V362.1 M500.9,335.6
	c0-12.3-3.3-23.6-15.9-23.6c-13.4,0-17.4,11.3-17.4,23.6v5.4h32c1,0,1.3-0.6,1.3-1.3V335.6z"/>
<path class="st0" d="M533.7,316.3h-15.1v-3.1h15.1c9.2,0,12.6,0,16.1-4.2v19.5h0.4c5-9.2,14.6-19.5,28.6-19.5
	c20.5,0,26.2,10.3,26.2,21.7v58.1h15.1v3.1h-46.4v-3.1h15.1v-62.7c0-10.5-5.2-14-11.3-14c-16.1,0-24.3,16.1-27.8,22.6v54h14.6v3.1
	h-45.8v-3.1h15.1V316.3"/>
<path class="st0" d="M169.6,415H169c-0.5-3.3-3.2-7.6-6.9-7.6c-3.2,0-5.1,3-5.1,11.2c0,7.8,1.4,11.2,5,11.2c4.1,0,6.5-4.1,7-6.7
	l0.2-1.1h0.5v7.8h-0.5c-0.1-0.5-0.5-1.3-1.2-1.3c-1,0-2.5,1.8-6.3,1.8c-6.3,0-10.1-5.6-10.1-11.4c0-5.7,4-12.1,10.5-12.1
	c2.3,0,4.5,1.6,5.8,1.6c0.7,0,1-0.3,1.1-1h0.6V415"/>
<path class="st0" d="M185,406.8c6,0,10.2,5.5,10.2,11.8c0.1,6-4.5,11.7-10.2,11.7s-10.3-5.8-10.2-11.7
	C174.8,412.3,178.9,406.8,185,406.8 M189.8,418.5c0-10.1-2.3-11.2-4.8-11.2s-4.8,1.1-4.8,11.2c0,8.1,1.1,11.2,4.8,11.2
	C188.7,429.7,189.8,426.6,189.8,418.5z"/>
<path class="st0" d="M199.1,429.2h0.1c2.1,0,2.5-1.4,2.5-2.8v-18.6h-2.4v-0.6h8.2l5.3,15.4h0.1l5.4-15.4h7.7v0.6h-2.4v21.3h2.4v0.6
	h-10.1v-0.6h2.7v-20.8h-0.1l-7.4,21.3h-0.9l-7.6-21.7h-0.1v18.1c0,2.6,0.7,3,2.4,3h0.4v0.6h-6.2V429.2"/>
<path class="st0" d="M232,429.2h0.1c2.1,0,2.5-1.4,2.5-2.8v-18.6h-2.4v-0.6h8.2l5.3,15.4h0.1l5.4-15.4h7.7v0.6h-2.4v21.3h2.4v0.6
	h-10.1v-0.6h2.8v-20.8h-0.1l-7.4,21.3H243l-7.6-21.7h-0.1v18.1c0,2.6,0.7,3,2.4,3h0.4v0.6H232V429.2"/>
<path class="st0" d="M262.1,407.3h10.1v0.6h-2.6v14c0,4.1,0.9,7.2,5.6,7.2c3.1,0,5.7-2.1,5.7-6.4v-12.1c0-1.8-0.5-2.7-2.1-2.7h-0.9
	v-0.6h6.3v0.6h-0.8c-1.1,0-1.7,0.8-1.7,2.7v11.9c0,4.7-2.6,7.8-8.4,7.8c-5.2,0-8.6-3-8.6-7.9v-14.5h-2.5V407.3"/>
<path class="st0" d="M287.1,429.2h0.6c1,0,1.9-0.4,1.9-2.3v-17.2l-1.4-1.9h-1v-0.6h6.6l12,15.5h0.1v-13.1c0-1.2-0.8-1.8-2.2-1.8
	h-0.6v-0.6h6v0.6h-0.4c-1.4,0-2,0.9-2,1.7v20.6h-1.3l-14.9-19.4h-0.1v16.3c0,1.8,0.7,2.1,2.5,2.1h0.3v0.6h-6V429.2"/>
<polyline class="st0" points="312.7,429.2 315.3,429.2 315.3,407.9 312.7,407.9 312.7,407.3 322.8,407.3 322.8,407.9 320.3,407.9 
	320.3,429.2 322.8,429.2 322.8,429.8 312.7,429.8 312.7,429.2 "/>
<path class="st0" d="M331.1,429.2h3v-21.3h-1.3c-4.1,0-5.2,2.9-5.7,6.4h-0.6v-7h20.1v7h-0.6c-0.5-3.5-1.5-6.4-5.7-6.4h-1.3v21.3h3
	v0.6h-10.9V429.2"/>
<path class="st0" d="M355.3,429.2h2.5V422l-6.2-14.1h-2.1v-0.6h9.8v0.6H357l5.3,12.1l3.8-8.6c0.4-0.9,0.6-1.7,0.6-2.2
	c0-0.8-0.5-1.3-1.9-1.3h-0.4v-0.6h5.7v0.6h-0.2c-1.1,0-1.8,0.6-2.8,3l-4.3,9.7v8.6h2.5v0.6h-9.9V429.2"/>
<path class="st0" d="M474.2,414.8h-0.6c-0.5-3.3-3.2-7.6-6.9-7.6c-3.2,0-5.1,3-5.1,11.2c0,7.8,1.4,11.2,5,11.2c4.1,0,6.5-4.1,7-6.7
	l0.2-1.1h0.5v7.8h-0.5c-0.1-0.5-0.5-1.3-1.2-1.3c-1,0-2.5,1.8-6.3,1.8c-6.3,0-10.1-5.6-10.1-11.4c0-5.7,4-12.1,10.5-12.1
	c2.3,0,4.5,1.6,5.8,1.6c0.7,0,1-0.3,1.1-0.9h0.6V414.8"/>
<path class="st0" d="M489.6,406.6c6,0,10.2,5.5,10.2,11.8c0.1,6-4.5,11.7-10.2,11.7c-5.7,0-10.3-5.8-10.2-11.7
	C479.4,412.1,483.6,406.6,489.6,406.6 M494.4,418.3c0-10.1-2.3-11.2-4.8-11.2c-2.5,0-4.8,1.1-4.8,11.2c0,8.1,1.1,11.2,4.8,11.2
	C493.3,429.5,494.4,426.4,494.4,418.3z"/>
<path class="st0" d="M503.9,429h2.6v-21.3h-2.6v-0.6h10.4v0.6h-2.9V429h3.7c5.7,0,6.9-2.8,6.9-6.5v-0.6h0.6v7.7h-18.8V429"/>
<path class="st0" d="M527.1,429h2.6v-21.3h-2.6v-0.6h10.4v0.6h-2.9V429h3.7c5.7,0,6.9-2.8,6.9-6.5v-0.6h0.6v7.7h-18.8V429"/>
<path class="st0" d="M550.2,429h2.6v-21.3h-2.6v-0.6H568v6.4h-0.6V413c0-2.9-2.1-5.3-6-5.3h-3.8v9.8h2.2c2.1,0,3.2-1.2,3.2-4.2v-0.3
	h0.6V423h-0.6v-0.7c0-2.3-1.1-4.2-3.2-4.2h-2.2v11h4.6c5.2,0,6-4.3,6-6.2v-0.4h0.6v7.2h-18.8V429"/>
<path class="st0" d="M593.2,427.4c-1.8,1.5-4.6,2.7-8.4,2.7c-5.8,0-10.7-4.7-10.7-11.4c0-7.2,4.6-12.1,10.3-12.1
	c2.9,0,5.3,1.7,6.2,1.7c0.7,0,1-0.4,1-1h0.6v7.3h-0.6c-0.5-3.8-2.8-7.4-6.9-7.4c-3.9,0-5.1,4.7-5.1,11.2c0,9.9,2.2,11.2,5.2,11.2
	c2.1,0,3.7-1.1,3.7-3.4v-3.5H586V422h9v0.6h-1.9V427.4"/>
<path class="st0" d="M598.4,429h2.6v-21.3h-2.6v-0.6h17.9v6.4h-0.6V413c0-2.9-2.1-5.3-5.9-5.3h-3.8v9.8h2.2c2.1,0,3.2-1.2,3.2-4.2
	v-0.3h0.6V423h-0.6v-0.7c0-2.3-1.1-4.2-3.2-4.2h-2.2v11h4.6c5.2,0,6-4.3,6-6.2v-0.4h0.6v7.2h-18.8V429"/>
<rect x="22.2" y="361.7" class="st0" width="88.7" height="17.2"/>
<rect x="22.2" y="376.5" class="st0" width="62.2" height="9.8"/>
<rect x="22.2" y="329" class="st0" width="121" height="17.2"/>
<rect x="22.2" y="343.7" class="st0" width="94.5" height="9.8"/>
<rect x="22.2" y="394.4" class="st0" width="56.4" height="17.2"/>
<polyline class="st0" points="22.2,429.2 22.2,409.2 57.4,409.2 43.5,429.2 22.2,429.2 "/>
<g>
	<path class="st1" d="M22.2,320h99.6c0,0,7.9-14.9,1.4-30.3c-6.7-15.9-21.7-25.7-38.4-27.4c-8.2-0.8-11.9,0-11.9,0
		s28.2,11.3,22.2,34.1c-0.4,1.4-0.9,2.7-0.9,2.7s-3.3-13.9-27.8-31.5c-24.5-17.6-32.7-40.9-32.3-52.8c0.4-11.9,2.9-17.2,2.9-17.2
		S21.5,217,20.2,237.8c-1,16.8,3.5,34.9,15.1,52.3c2.4,3.7,5.3,8.2,5.3,8.2s-15.5-4.9-18.4-19.2V320"/>
</g>
<path class="st0" d="M383.4,418.2c-0.8,0.7-1.4,1.8-1.4,1.8c-5.2,13.4,11.7,22.4,26.7,22.4c19.5,0,38.7-12.5,38.7-31.6
	c0-10-8-12.8-18-12.8h-39.5c-10.5,0-15.5-7.3-15.5-17.8c0-13.4,6.5-18.8,18.8-19v-0.4c-8.6-5.6-14.4-11.5-14.4-21.8
	c0-17.1,14.8-29.9,31.8-29.9c9,0,17,2.7,22.4,8.2l0.1,0.2l0.2,0.1c4.2-4.8,9.8-8.5,16.8-8.5c2.5,0,4.2-0.1,7.2,0.5
	c0,0,1.6-0.1,1.4,1.5c-0.2,1.6-0.6,2.1-1.3,4.5c-0.1,0.5-0.4,1.2-0.4,1.2c-2.4-4.1-7.7-3.5-7.7-3.5c-3.5,0.3-3.4,0.5-5.7,1.2
	c-1.6,0.5-4.7,2.1-8.1,5.5c3.3,3.1,7,11.1,7,18.4c0,15.9-16.9,28.2-31.8,28.2c-8.2,0-12.3-2.5-14.4-3.4
	c-10.3,0.2-18.8,3.1-18.8,12.1c0,4.8,3.8,7.9,8.4,7.9h44.8c10.7,0,21.3,4.4,21.3,22c0,26.1-21.1,40.4-44.3,40.4
	c-17.6,0-37-6.3-37-24.7c0,0,0-2,1-2.4c1.1-0.4,7.7-0.2,7.7-0.2L383.4,418.2 M410.5,363.4c15.7,0,15.7-12.1,15.7-25.7
	c0-15.3,0-25.7-15.7-25.7c-15.7,0-15.7,15.5-15.7,25.7C394.8,350,394.8,363.4,410.5,363.4z"/>
</svg>
