<?xml version="1.0" encoding="utf-8"?>
<!-- Generator: Adobe Illustrator 26.0.3, SVG Export Plug-In . SVG Version: 6.00 Build 0)  -->
<svg version="1.0" id="katman_1" xmlns="http://www.w3.org/2000/svg" xmlns:xlink="http://www.w3.org/1999/xlink" x="0px" y="0px"
	 viewBox="0 0 600 450" style="enable-background:new 0 0 600 450;" xml:space="preserve">
<style type="text/css">
	.st0{fill-rule:evenodd;clip-rule:evenodd;fill:#221F20;}
	.st1{fill-rule:evenodd;clip-rule:evenodd;fill:#CC1236;}
	.st2{fill-rule:evenodd;clip-rule:evenodd;fill:#FFFFFF;}
</style>
<g>
	<g transform="translate(65.484 10.161)">
		<g transform="translate(54.711 49.174)">
			<path class="st0" d="M126.6,215.7c0,1.7-0.1,3.3-1.9,4.3c-0.6,0.3-1.4,0.6-2.7,0.6c-1.5,0-3.9-0.4-4.6-2.7
				c-0.3-0.8-0.3-1.7-0.3-2.5c0-1.2-0.1-6-0.1-6.6l0.1-0.1h0.7c0.8,0,1.4,0,2.2,0l0.1,0.1c0,1.1,0,2.3,0,3.7c0,0.6,0,3.7,0.1,4.4
				c0.1,0.8,0.6,1.7,2,1.7c0.2,0,1.2,0,1.7-1.1c0.2-0.5,0.2-1.7,0.2-2.2c0-2.2-0.1-4.2-0.2-6.4l0.1-0.1h0.6c0.7,0,1.2,0,1.9,0
				l0.1,0.1c0,1.8,0,3.1,0,4.9V215.7z M142.1,220.4h-1c-0.4,0-0.8,0-1.2,0l-0.1-0.1c-2-3.1-4.6-6.6-5.3-7.9c0,0.7,0.2,6.2,0.3,7.9
				l-0.1,0.1h-1.1c-0.4,0-0.9,0-1.3,0l-0.1-0.1c0-1.2,0.1-2.5,0.1-3.7c0-2.6,0-5.2-0.1-7.8l0.1-0.1h0.9c0.5,0,1.3,0,1.8,0l0.1,0.1
				c0.3,0.6,3.4,5,4.8,7.3c-0.1-2.2-0.2-6.7-0.2-7.2l0.1-0.1h0.9c0.2,0,1.4,0,1.4,0l0.1,0.1c0,1.9,0,3.9,0,5.8
				C142.2,215.3,142.2,218.3,142.1,220.4L142.1,220.4z M151,220.4h-1.4c-0.3,0-1.6,0-1.6,0l-0.1-0.1c0-1.5,0.1-3.1,0.1-4.6v-1.2
				c0-1.9,0-3.9-0.1-5.8l0.1-0.1h1.1c0.5,0,1.5,0,1.9,0l0.1,0.1c0,2.3-0.1,4.5-0.1,6.8C151,217.1,151,218.7,151,220.4L151,220.4z
				 M158.4,220.3c-1-4.3-2-7.3-3.2-11.5l0.1-0.1c1.1,0,1.9,0,3-0.1l0.1,0.1c0.1,0.6,1.9,8.5,2.1,9.3c0.3-1.7,1.6-6.6,2.1-9.1
				l0.1-0.1h0.6c0.7,0,1.3,0,2,0l0.1,0.1c-1.1,3.8-2.3,7.7-3.2,11.5l-0.1,0.1h-0.7C160.3,220.4,159.5,220.4,158.4,220.3L158.4,220.3
				z M177,218.2c0,0.7-0.1,1.4-0.1,2l-0.1,0.1c-2.4,0-4.8,0-7.3,0l-0.1-0.1c0.1-1.5,0.1-3,0.1-4.6v-3.4c0-1.2,0-2.3-0.1-3.5l0.1-0.1
				c1.8,0,6.2,0,7.3,0l0.1,0.1c0,0.7-0.1,1.3-0.1,1.9l-0.1,0.1c-1.4,0-2.8,0-4.2,0c0,0.3,0,0.8,0,1.2c0,0.5,0,1.1,0,1.4
				c1.3,0,2.7,0,4-0.1l0.1,0.1c0,0.6-0.1,1.2-0.1,1.9l-0.1,0.1c-2.4,0-3.9,0-3.9,0c0,1,0,1.9,0,2.9c1.5,0,3,0,4.5-0.1L177,218.2z
				 M184.9,213.9h0.3c1.1,0,2.3-0.2,2.3-1.8c0-1.4-1.2-1.5-1.9-1.5c-0.2,0-0.4,0-0.7,0c0,0.7,0,1.2,0,1.9V213.9z M185,220.4h-0.7
				c-0.8,0-1.4,0-2.2,0.1l-0.1-0.1c0-1.6,0.1-2.7,0.1-3.7c0-2.9,0-4.9-0.1-7.8l0.1-0.1h0.9c0.8,0,2.5,0,3.7,0c0.8,0,3.8,0.1,3.8,3.3
				c0,0.9-0.2,2-1.5,2.8c-0.3,0.2-0.7,0.3-0.8,0.4c0.6,1.1,2.4,3.9,3.2,5l-0.1,0.2c-1.2,0-2,0-3.1,0.1l-0.1-0.1
				c-0.2-0.3-1.2-2.6-2.2-4.3l-0.2-0.3c-0.3,0-0.6,0-0.8,0v0.7C184.9,217.9,185,218.9,185,220.4L185,220.4z M195.4,219.9
				c0.1-0.9,0.1-1.5,0.1-2.3l0.1,0c0.6,0.5,1.4,1,2.9,1c1.2,0,2-0.6,2-1.4c0-0.8-0.7-1.2-2-1.7l-0.6-0.3c-0.9-0.4-2.5-1.2-2.5-3.2
				c0-2,1.4-3.5,4.1-3.5c1.5,0,2.4,0.3,3.1,0.6l0.1,0.1c-0.1,0.8-0.1,1.4-0.1,2.2l-0.1,0.1c-1.1-0.8-2.2-0.9-2.5-0.9
				c-1.1,0-1.7,0.5-1.7,1.1c0,0.8,0.7,1.1,1.8,1.5l0.8,0.3c1.5,0.6,2.5,1.6,2.5,3.4c0,2.3-1.7,3.8-4.5,3.8c-1.8,0-2.6-0.3-3.4-0.6
				L195.4,219.9z M211.3,220.4h-1.4c-0.3,0-1.6,0-1.6,0l-0.1-0.1c0-1.5,0.1-3.1,0.1-4.6v-1.2c0-1.9,0-3.9-0.1-5.8l0.1-0.1h1.1
				c0.5,0,1.5,0,1.9,0l0.1,0.1c0,2.3-0.1,4.5-0.1,6.8C211.3,217.1,211.3,218.7,211.3,220.4L211.3,220.4z M221.5,220.4h-0.6
				c-0.9,0-1.5,0-2.4,0l-0.1-0.1c0.1-2.8,0.1-4.7,0.1-7.5c0-0.7,0-1.6,0-2c-0.8,0-1.7,0-2.7,0.1l-0.1-0.1c0-0.8,0.1-1.3,0.1-2
				l0.1-0.1h5.4c1,0,1.8,0,2.8,0l0.1,0.1c-0.1,0.7-0.1,1.3-0.1,2.1l-0.1,0.1c-0.9,0-1.6-0.1-2.6-0.1c0,0.9,0,1.6,0,2.5
				C221.4,214.1,221.5,219.7,221.5,220.4L221.5,220.4z M231.5,220.3c0.1-1.6,0.1-2.7,0.1-4.3v-0.5c-1.3-2.4-2.5-4.3-3.8-6.6l0.1-0.1
				c1.2,0,2,0,3.1-0.1l0.1,0.1c0.7,1.7,1.4,2.8,2.2,4.4c0.8-1.6,1.3-2.7,2.1-4.3l0.1-0.1h0.6c0.7,0,1.2,0,2,0l0,0.1
				c-1.3,2.5-2.3,4.2-3.7,6.6v0.7c0,1.6,0,2.6,0.1,4.2l-0.1,0.1H234C233.1,220.4,232.5,220.4,231.5,220.3L231.5,220.3z"/>
			<g transform="translate(79.856)">
				<path class="st0" d="M170.6,223.9c0,0,0-3.6,0-4.7v-6.6c0-1,0-4.2,0-4.7l0.1-0.1c0.4,0,0.7,0,0.9,0c0.3,0,0.6,0,1.3,0l0.1,0.1
					c0,0.3,0,0.7,0,2.3v11.3c0,0.4,0,2.4,0,2.4l-0.1,0.1h-0.5c-0.7,0-0.9,0-1.7,0L170.6,223.9z"/>
			</g>
			<path class="st0" d="M276.3,220.4h-1c-0.4,0-0.8,0-1.2,0l-0.1-0.1c-2-3.1-4.6-6.6-5.3-7.9c0,0.7,0.2,6.2,0.3,7.9l-0.1,0.1h-1.1
				c-0.4,0-0.9,0-1.3,0l-0.1-0.1c0-1.2,0.1-2.5,0.1-3.7c0-2.6,0-5.2-0.1-7.8l0.1-0.1h0.9c0.5,0,1.3,0,1.8,0l0.1,0.1
				c0.3,0.6,3.4,5,4.8,7.3c-0.1-2.2-0.2-6.7-0.2-7.2l0.1-0.1h0.9c0.2,0,1.4,0,1.4,0l0.1,0.1c0,1.9,0,3.9,0,5.8
				C276.4,215.3,276.4,218.3,276.3,220.4L276.3,220.4z M289.7,218.2c0,0.7-0.1,1.4-0.1,2l-0.1,0.1c-2.4,0-4.8,0-7.3,0l-0.1-0.1
				c0.1-1.5,0.1-3,0.1-4.6v-3.4c0-1.2,0-2.3-0.1-3.5l0.1-0.1c1.8,0,6.2,0,7.3,0l0.1,0.1c0,0.7-0.1,1.3-0.1,1.9l-0.1,0.1
				c-1.4,0-2.8,0-4.2,0c0,0.3,0,0.8,0,1.2c0,0.5,0,1.1,0,1.4c1.3,0,2.7,0,4-0.1l0.1,0.1c0,0.6-0.1,1.2-0.1,1.9l-0.1,0.1
				c-2.4,0-3.9,0-3.9,0c0,1,0,1.9,0,2.9c1.5,0,3,0,4.5-0.1L289.7,218.2z M302.6,220.3c0-0.4-1.2-6.9-1.3-8.7c0,0.5-1,5.5-1.5,8.6
				l-0.1,0.1c-0.3,0-0.7,0-0.9,0c-1,0-1.8,0-2.8,0.1l-0.1-0.1c-0.7-4-1.3-6.8-2.4-11.5l0.1-0.1c1.1,0,1.8-0.1,2.9-0.1l0.1,0.1
				c0.1,0.8,1.3,7.3,1.6,9.6c0.6-3.4,1.7-9,1.7-9.5l0.1-0.1c1.2,0,2.1,0,3.3-0.1l0.1,0.1c0,0.5,1.4,7.7,1.6,9.7
				c0.5-2.9,1.6-8.5,1.7-9.6l0.1-0.1h0.6c0.7,0,1.2,0,1.9,0l0.1,0.1c-0.9,3.9-1.8,7.5-2.6,11.5l-0.1,0.1h-1
				C304.5,220.4,303.8,220.4,302.6,220.3L302.6,220.3z M325.4,213.4c0.8,0,2-0.2,2-1.5c0-1.4-1.4-1.4-1.7-1.4c-0.4,0-0.7,0-1.1,0
				v2.9C324.6,213.4,325,213.4,325.4,213.4L325.4,213.4z M324.6,218.5h0.6c1,0,2.5-0.1,2.5-1.6c0-1-0.6-1.6-1.9-1.6
				c-0.4,0-0.9,0-1.2,0C324.6,215.9,324.6,217.5,324.6,218.5L324.6,218.5z M321.7,220.3c0.1-4.3,0.1-5.6,0.1-6.8
				c0-1.6,0-3.1-0.1-4.7l0.1-0.1c0.8,0,3.9-0.1,4.4-0.1c1.5,0,2.4,0.1,3.2,0.7c0.4,0.4,0.9,1,0.9,2c0,1.5-1,2.3-1.9,2.6
				c1.2,0.1,2.4,1,2.4,2.8c0,1.2-0.5,2.4-1.9,3.1c-1.1,0.5-2.3,0.6-3.5,0.6h-3.6L321.7,220.3z M338.9,213.9h0.3
				c1.1,0,2.3-0.2,2.3-1.8c0-1.4-1.2-1.5-1.9-1.5c-0.2,0-0.4,0-0.7,0c0,0.7,0,1.2,0,1.9V213.9z M339,220.4h-0.7
				c-0.8,0-1.4,0-2.2,0.1l-0.1-0.1c0-1.6,0.1-2.7,0.1-3.7c0-2.9,0-4.9-0.1-7.8l0.1-0.1h0.9c0.8,0,2.5,0,3.7,0c0.8,0,3.8,0.1,3.8,3.3
				c0,0.9-0.2,2-1.5,2.8c-0.3,0.2-0.7,0.3-0.8,0.4c0.6,1.1,2.4,3.9,3.2,5l-0.1,0.2c-1.2,0-2,0-3.1,0.1l-0.1-0.1
				c-0.2-0.3-1.2-2.6-2.2-4.3l-0.2-0.3c-0.3,0-0.6,0-0.8,0v0.7C338.9,217.9,339,218.9,339,220.4L339,220.4z M359.4,215.7
				c0,1.7-0.1,3.3-1.9,4.3c-0.6,0.3-1.4,0.6-2.7,0.6c-1.5,0-3.9-0.4-4.6-2.7c-0.3-0.8-0.3-1.7-0.3-2.5c0-1.2-0.1-6-0.1-6.6l0.1-0.1
				h0.7c0.8,0,1.4,0,2.2,0l0.1,0.1c0,1.1,0,2.3,0,3.7c0,0.6,0,3.7,0.1,4.4c0.1,0.8,0.6,1.7,2,1.7c0.2,0,1.2,0,1.7-1.1
				c0.2-0.5,0.2-1.7,0.2-2.2c0-2.2-0.1-4.2-0.2-6.4l0.1-0.1h0.6c0.7,0,1.2,0,1.9,0l0.1,0.1c0,1.8,0,3.1,0,4.9V215.7z M375,220.4h-1
				c-0.4,0-0.8,0-1.2,0l-0.1-0.1c-2-3.1-4.6-6.6-5.3-7.9c0,0.7,0.2,6.2,0.3,7.9l-0.1,0.1h-1.1c-0.4,0-0.9,0-1.3,0l-0.1-0.1
				c0-1.2,0.1-2.5,0.1-3.7c0-2.6,0-5.2-0.1-7.8l0.1-0.1h0.9c0.5,0,1.3,0,1.8,0l0.1,0.1c0.3,0.6,3.4,5,4.8,7.3
				c-0.1-2.2-0.2-6.7-0.2-7.2l0.1-0.1h0.9c0.2,0,1.4,0,1.4,0l0.1,0.1c0,1.9,0,3.9,0,5.8C375,215.3,375,218.3,375,220.4L375,220.4z
				 M380.1,219.9c0.1-0.9,0.1-1.5,0.1-2.3l0.1,0c0.6,0.5,1.4,1,2.9,1c1.2,0,2-0.6,2-1.4c0-0.8-0.7-1.2-2-1.7l-0.6-0.3
				c-0.9-0.4-2.5-1.2-2.5-3.2c0-2,1.4-3.5,4.1-3.5c1.5,0,2.4,0.3,3.1,0.6l0.1,0.1c-0.1,0.8-0.1,1.4-0.1,2.2l-0.1,0.1
				c-1.1-0.8-2.1-0.9-2.5-0.9c-1.1,0-1.7,0.5-1.7,1.1c0,0.8,0.7,1.1,1.8,1.5l0.8,0.3c1.5,0.6,2.5,1.6,2.5,3.4c0,2.3-1.7,3.8-4.5,3.8
				c-1.8,0-2.6-0.3-3.4-0.6L380.1,219.9z M401,220.3c0-0.4-1.2-6.9-1.3-8.7c0,0.5-1,5.5-1.5,8.6l-0.1,0.1c-0.3,0-0.7,0-0.9,0
				c-1,0-1.8,0-2.8,0.1l-0.1-0.1c-0.7-4-1.3-6.8-2.4-11.5l0.1-0.1c1.1,0,1.8-0.1,2.9-0.1l0.1,0.1c0.1,0.8,1.3,7.3,1.6,9.6
				c0.6-3.4,1.7-9,1.7-9.5l0.1-0.1c1.2,0,2.1,0,3.3-0.1l0.1,0.1c0,0.5,1.4,7.7,1.6,9.7c0.5-2.9,1.6-8.5,1.7-9.6l0.1-0.1h0.6
				c0.7,0,1.2,0,1.9,0l0.1,0.1c-0.9,3.9-1.8,7.5-2.6,11.5l-0.1,0.1h-1C402.9,220.4,402.1,220.4,401,220.3L401,220.3z M414.9,220.4
				h-1.4c-0.3,0-1.6,0-1.6,0l-0.1-0.1c0-1.5,0.1-3.1,0.1-4.6v-1.2c0-1.9,0-3.9-0.1-5.8l0.1-0.1h1.1c0.5,0,1.5,0,1.9,0l0.1,0.1
				c0,2.3-0.1,4.5-0.1,6.8C414.9,217.1,414.9,218.7,414.9,220.4L414.9,220.4z M428.8,220c-0.6,0.2-1.5,0.6-2.9,0.6
				c-3.7,0-5.9-2.5-5.9-6c0-3.4,2-6.1,5.8-6.1c1.5,0,2.5,0.3,3.1,0.6l0.1,0.1c-0.1,0.8-0.1,1.4-0.2,2.3l-0.1,0
				c-0.5-0.4-1.2-0.8-2.3-0.8c-2.4,0-3.2,2.1-3.2,3.9c0,2.9,1.8,3.8,3.2,3.8c1.4,0,2.3-0.7,2.6-0.9l0.1,0.1
				C428.9,218.4,428.9,219,428.8,220L428.8,220z"/>
			<g transform="translate(188.525)">
				<path class="st0" d="M255.1,220.3c-1.2,0-2.1,0.1-3.4,0.1l-0.1-0.1c-1.1-2-2.3-4-3.6-5.9v0.5c0,2,0,3.4,0.1,5.3l-0.1,0.1h-0.7
					c-0.8,0-1.4,0-2.2,0l-0.1-0.1c0.1-1.6,0.1-2.7,0.1-4.3c0-2.7,0-4.5-0.1-7.2l0.1-0.1h0.6c0.8,0,1.4,0,2.3,0l0.1,0.1
					c0,1.7-0.1,3.2-0.1,5.1c1.3-1.8,2.1-3.2,3.3-5l0.1-0.1h0.6c0.9,0,1.6,0,2.5,0l0,0.2c-1.2,1.4-1.9,2.2-3.8,4.9
					c1.2,2.2,2.7,4.4,4.3,6.4L255.1,220.3z"/>
			</g>
		</g>
		<g transform="translate(0 .04)">
			<path class="st1" d="M172.2,232.9l2.1-0.6v-36.1c0-8.7,0-9.1,2.8-9.4l2.6-0.2V185h-17.4v1.5l2.6,0.2c2.8,0.3,2.8,0.6,2.8,9.4
				v29.1c-1.1,1.3-5.5,5.7-13,5.7c-11.1,0-12.8-6.8-12.8-17.1v-17.8c0-8.7,0-9.1,2.8-9.4l2.6-0.2V185h-17.4v1.5l2.6,0.2
				c2.8,0.3,2.8,0.6,2.8,9.4v18.9c0,9.7,1.2,18.3,16,18.3c9.5,0,15.5-4.5,16.5-4.5c1.1,0,1.6,1,2.6,2L172.2,232.9z M191.4,232.3
				h19.8v-1.5l-2.6-0.2c-4-0.3-4-0.6-4-9.4V187h3.7c10.1,0,10.2,1.1,11.8,9.4h1.7c0-0.3-0.4-9.8-0.6-11.4h-39.9
				c-0.3,1.6-0.6,11.1-0.6,11.4h1.7c1.6-8.3,1.7-9.4,11.8-9.4h3.7v34.1c0,8.7,0,9.1-3.9,9.4l-2.6,0.2V232.3z M265.9,222.9
				c0-7,0-7.3,1.4-7.6l2.6-0.2v-1.5h-18.2v1.5l2.6,0.2c5,0.3,5,0.6,5,9.4v5.4c-2.5,0.6-5.8,0.9-8.4,0.9c-14,0-20.3-11.3-20.3-23.6
				c0-13.4,7.4-21.1,19.1-21.1c12.2,0,13.2,8.7,13.9,11.6l1.9-0.4c-0.3-3.5-0.7-7.5-1.1-10.6c-1.9-1.1-7.3-2.9-14.6-2.9
				c-11.3,0-26.7,5.7-26.7,24.9c0,18.3,12.9,24.6,27.3,24.6c7.7,0,13.1-2.1,15.7-2.9C266.1,230.5,265.9,225,265.9,222.9
				 M274.3,232.3h32.8c0.9-3.9,1.7-7.5,2.4-11.9l-1.8-0.3c-1.4,5.9-2.1,10.2-13.6,10.2c-2.6,0-5.2-0.4-7.8-0.9v-20.6h6.4
				c5.6,0,6.9,0.1,7.3,3l0.4,2.4h1.9v-12.9h-1.9l-0.4,2.4c-0.4,2.9-1.7,3-7.3,3h-6.4V187h5.9c10.1,0,10.3,1.1,11.8,8.7l1.7-0.3
				c0-0.6-0.4-8.9-0.6-10.5h-30.9v1.5l2.6,0.2c2.8,0.3,2.8,0.6,2.8,9.4v25c0,8.8,0,9.1-2.8,9.4l-2.6,0.2V232.3z M327.1,188
				c1.4-0.3,2.9-0.6,4.4-0.6c5.6,0,11.1,2.6,11.1,11c0,8.1-5.4,11.3-11.5,11.3h-4.1V188z M315.1,232.3h17.3v-1.5l-2.6-0.2
				c-2.7-0.3-2.7-0.6-2.7-9.4v-9.5h2.6c1.5,0,3.3,0,4.4,0.9c0.9,0.8,2.6,3.5,4.4,7l2.9,5.5c2.1,3.9,5.4,7.1,10.2,7.1h5.5v-1.5
				c-1.6,0-2.9-0.3-3.6-0.7c-1.8-1-4.9-5.2-7.9-10.6c-1.9-3.4-4.3-8-5.4-10c3.9-1.9,9.9-5.8,9.9-12.5c0-10.9-9.6-11.9-16.4-11.9
				h-18.7v1.5l2.6,0.2c2.8,0.3,2.8,0.6,2.8,9.4v25c0,8.8,0,9.1-2.8,9.4l-2.6,0.2V232.3z M372.8,202.9c-3.9-2.3-6.9-4.6-6.9-8.8
				c0-4.8,3.6-7.8,7.8-7.8c8.1,0,9.2,6.2,9.9,9.8h1.8c-0.2-2.1-0.3-7.3-0.7-9.9c-1.9-1.1-5.4-2.3-9.9-2.3c-7.6,0-14.9,3.7-14.9,12.4
				c0,5.4,3.8,9.8,7.9,12l4.6,2.5c5.6,2.5,10,6.1,10,11.3c0,5.6-3.7,8.8-8.6,8.8c-9.8,0-12.5-8.5-13.2-13.7l-2.3,0.6
				c0.8,4.9,1.6,9.9,2.3,12.6c2.2,1.4,5.7,2.9,11.2,2.9c7.6,0,16.5-3.7,16.5-13.4c0-8.6-5.9-11.6-11.5-14.8L372.8,202.9z"/>
			<path class="st1" d="M95.1,205c2.2,0.1,4.5-0.1,6.7-0.1c8.5,0,13.7-4.6,13.7-13c0-9.2-5.3-14.9-14.7-14.9c-1.9,0-3.8,0.4-5.7,0.8
				L95.1,205z M113.4,205c0.8,4.5,7.1,16.2,9.6,20.5c5.5,10.1,19.5,30.6,30.1,29.9l1.2,0l0,1.7l-1.8,0.1
				c-14.9,0.6-28.1-16-35.9-29.3c-3.1-5.4-6.2-11.7-8.9-17.3c-0.7-1.5-1.5-2.4-2.5-3c-1.5-0.8-3.4-0.8-5-0.8c-0.9,0-3.6,0-5.1,0
				l0,11.9c0,2.2-0.2,7.6,0.4,9.8c0.5,1.7,1.5,1.9,3.2,2.1l2.9,0.2v1.4H81.3v-1.4l2.9-0.2c1.7-0.2,2.8-0.4,3.3-2.1
				c0.6-2.1,0.4-7.6,0.4-9.8v-30.7c0-2.2,0.2-7.6-0.4-9.8c-0.5-1.7-1.5-1.9-3.3-2.1l-2.9-0.2v-1.4l13.8,0c12.2,0,28.6-1.7,28.6,15.4
				c0,6.9-4.7,11.5-10.5,14.3C113.3,204.7,113.4,205,113.4,205L113.4,205z"/>
		</g>
	</g>
	<path class="st2" d="M35.5,167.4v68.3c0.3,11.4,4,21.3,11.1,29.2c12.7,14.2,31.8,17.7,34,18.1c0.2,0,0.3,0,0.3,0l0.4,0.1l0.4-0.1
		c0.9-0.1,21.1-3.2,34.4-18.1c3-3.4,5.4-7.2,7.2-11.2c2.4-5.5,3.7-11.5,3.8-18.1v-68.2H35.5z"/>
	<path class="st1" d="M108.5,223c-0.4-0.1-0.8-0.2-1.3-0.2c-0.7,0-1.4,0.1-2.2,0.4v0.9c0.7-0.3,1.5-0.5,2.1-0.4
		c0.4,0,0.8,0.1,1.1,0.1c0.3,0.1,0.7,0.2,1.2,0.2c0.7,0.1,1.4,0,2.1-0.1v-0.9c-0.7,0.1-1.4,0.2-2,0.1
		C109.1,223.2,108.8,223.1,108.5,223L108.5,223z M108.3,219.2c0.3,0.1,0.7,0.2,1.2,0.2c0.7,0.1,1.4,0,2.1-0.1v-0.9
		c-0.7,0.1-1.4,0.2-2,0.1c-0.5,0-0.8-0.1-1.1-0.2c-0.4-0.1-0.8-0.2-1.3-0.2c-0.7,0-1.4,0.1-2.2,0.4v0.9c0.7-0.3,1.4-0.5,2.1-0.4
		C107.6,219.1,107.9,219.1,108.3,219.2L108.3,219.2z M111.6,220.7c-0.7,0.1-1.4,0.2-2,0.1c-0.5,0-0.8-0.1-1.1-0.2
		c-0.4-0.1-0.8-0.2-1.3-0.2c-0.7,0-1.4,0.1-2.2,0.4v0.9c0.7-0.3,1.4-0.5,2.1-0.4c0.4,0,0.8,0.1,1.1,0.1c0.3,0.1,0.7,0.2,1.2,0.2
		c0.7,0.1,1.4,0,2.1-0.1V220.7z M108.5,230c-0.4-0.1-0.8-0.2-1.3-0.2c-0.7,0-1.4,0.1-2.2,0.4v0.9c0.7-0.3,1.4-0.5,2.1-0.4
		c0.4,0,0.8,0.1,1.1,0.1c0.3,0.1,0.7,0.2,1.2,0.2c0.7,0,1.4,0,2.1-0.1v-0.9c-0.7,0.1-1.4,0.2-2,0.1
		C109.1,230.2,108.8,230.1,108.5,230L108.5,230z M109.3,235.8c1.8,0.3,4.1,0,6.8-1v-17.2c-0.3,0.1-0.5,0.2-0.7,0.2v4v5.3v7.2
		l-0.3,0.1c-2.3,0.7-4.3,0.9-5.9,0.6c-2.1-0.4-3.9-0.2-5.3,0.7c0,0-0.1,0-0.1,0.1l-0.1,0.1v0.7C105.2,235.6,107.1,235.4,109.3,235.8
		L109.3,235.8z M88.1,235.3l0.2,0.1c3,1.1,5.5,1.5,7.4,1.1c2-0.4,3.8-0.2,5.2,0.6h1.1v-5.4v-14.5c-0.4-0.3-0.8-0.5-1.3-0.8
		c-0.6-0.3-1.7-0.6-3.1-0.6c-0.6,0-1.3,0.1-2,0.2c-0.3,0.1-0.6,0.1-0.9,0.1c-1,0.1-2.1,0-3.3-0.3l-0.4-0.1v0.9
		c-0.3-0.1-0.7-0.2-1-0.3l-0.5-0.1v0.9c-0.3-0.1-0.6-0.2-1-0.3l-0.5-0.2V235.3z M102.5,240.3l-0.8,1.5l-1.7,0.2l1.2,1.2L101,245
		l1.5-0.8l1.5,0.8l-0.3-1.7l1.2-1.2l-1.7-0.2L102.5,240.3z M102.9,237.2h1.1c1.4-0.8,3.1-1,5.2-0.6c1.9,0.4,4.5,0,7.4-1.1l0.2-0.1
		v-18.8l-0.5,0.2c-0.3,0.1-0.7,0.2-1,0.3v-0.9l-0.5,0.1c-0.3,0.1-0.7,0.2-1,0.3v-0.9l-0.4,0.1c-1.2,0.3-2.3,0.4-3.3,0.3
		c-0.3,0-0.6,0-0.9-0.1c-0.7-0.1-1.4-0.2-2-0.2c-1.4,0-2.4,0.3-3.1,0.6c-0.4,0.2-0.9,0.5-1.3,0.8v14.5V237.2z M111,241.2l1.2-1.2
		l-1.7-0.2l-0.8-1.5l-0.8,1.5l-1.7,0.2l1.2,1.2l-0.3,1.7l1.5-0.8l1.5,0.8L111,241.2z M96.4,241.2l1.2-1.2l-1.7-0.2l-0.8-1.5
		l-0.8,1.5l-1.7,0.2l1.2,1.2l-0.3,1.7l1.5-0.8l1.5,0.8L96.4,241.2z M82.7,200.6h39.5v35.1c-0.2,10.2-3.5,18.9-9.8,26
		c-10,11.3-24.9,15.2-29.6,16.2V200.6z M108.3,226.2c0.3,0.1,0.7,0.2,1.2,0.2c0.7,0.1,1.4,0,2.1-0.1v-0.9c-0.7,0.1-1.4,0.2-2,0.1
		c-0.5,0-0.8-0.1-1.1-0.2c-0.4-0.1-0.8-0.2-1.3-0.2c-0.7,0-1.4,0.1-2.2,0.4v0.9c0.7-0.3,1.4-0.5,2.1-0.4
		C107.6,226.1,107.9,226.1,108.3,226.2L108.3,226.2z M109.3,234.3c1.4,0.3,3.2,0.1,5.3-0.5v-4.8v-8.8v-2v-0.8v-0.1
		c-0.3,0.1-0.5,0.1-0.8,0.2v0.1v0.8v0.7v11.2v3.1l-0.3,0.1c-1.7,0.4-3.2,0.5-4.4,0.2c-0.5-0.1-1-0.1-1.4-0.2c-0.2,0-0.3,0-0.5,0
		c-0.1,0-0.1,0-0.2,0c-1.8,0-2.8,0.6-3.2,0.9l-0.2,0.1v0.7C105.2,234.1,107.1,233.9,109.3,234.3L109.3,234.3z M111.6,227.7
		c-0.7,0.1-1.4,0.2-2,0.1c-0.5,0-0.8-0.1-1.1-0.2c-0.4-0.1-0.8-0.2-1.3-0.2c-0.7,0-1.4,0.1-2.2,0.4v0.9c0.7-0.3,1.4-0.5,2.1-0.4
		c0.4,0,0.8,0.1,1.1,0.1c0.3,0.1,0.7,0.2,1.2,0.2c0.7,0.1,1.4,0,2.1-0.1V227.7z M95.7,235.8c2.2-0.4,4.1-0.2,5.6,0.7v-0.7l-0.1-0.1
		c0,0-0.1,0-0.1-0.1c-1.4-0.8-3.2-1.1-5.3-0.7c-1.6,0.3-3.6,0.1-5.9-0.6l-0.3-0.1v-7.2v-5.3v-4c-0.2-0.1-0.5-0.2-0.7-0.2v17.2
		C91.6,235.8,93.9,236.1,95.7,235.8L95.7,235.8z M95.7,234.3c2.2-0.4,4.1-0.2,5.6,0.7v-0.7l-0.2-0.1c-0.4-0.2-1.4-0.8-3.2-0.9
		c-0.1,0-0.1,0-0.2,0c-0.1,0-0.3,0-0.5,0c-0.5,0-0.9,0.1-1.4,0.2c-1.2,0.2-2.7,0.2-4.4-0.2l-0.3-0.1v-3.1v-11.2v-0.7v-0.8v-0.1
		c-0.2-0.1-0.5-0.1-0.8-0.2v0.1v0.8v2v8.8v4.8C92.5,234.4,94.3,234.5,95.7,234.3L95.7,234.3z M95.4,219.4c0.5,0,0.9-0.1,1.2-0.2
		c0.4-0.1,0.7-0.1,1.1-0.2c0.7,0,1.4,0.1,2.1,0.5v-0.9c-0.7-0.3-1.4-0.4-2.2-0.4c-0.5,0-0.9,0.1-1.3,0.2c-0.3,0.1-0.7,0.1-1.1,0.2
		c-0.7,0-1.4,0-2-0.1v0.9C94.1,219.4,94.8,219.5,95.4,219.4L95.4,219.4z M100,223.3c-0.7-0.3-1.4-0.4-2.2-0.4
		c-0.5,0-0.9,0.1-1.3,0.2c-0.3,0.1-0.7,0.1-1.1,0.2c-0.7,0-1.4,0-2-0.1v0.9c0.7,0.1,1.4,0.2,2.1,0.1c0.5,0,0.9-0.1,1.2-0.2
		c0.4-0.1,0.7-0.1,1.1-0.2c0.7,0,1.4,0.1,2.1,0.4V223.3z M95.4,221.7c0.5,0,0.9-0.1,1.2-0.2c0.4-0.1,0.7-0.1,1.1-0.2
		c0.7,0,1.4,0.1,2.1,0.4v-0.9c-0.7-0.3-1.4-0.4-2.2-0.4c-0.5,0-0.9,0.1-1.3,0.2c-0.3,0.1-0.7,0.1-1.1,0.2c-0.7,0-1.4,0-2-0.1v0.9
		C94.1,221.7,94.8,221.8,95.4,221.7L95.4,221.7z M96.5,225.4c-0.3,0.1-0.7,0.1-1.1,0.2c-0.7,0-1.4,0-2-0.1v0.9
		c0.7,0.1,1.4,0.2,2.1,0.1c0.5,0,0.9-0.1,1.2-0.2c0.4-0.1,0.7-0.1,1.1-0.2c0.7,0,1.4,0.1,2.1,0.4v-0.9c-0.7-0.3-1.4-0.4-2.2-0.4
		C97.3,225.2,96.9,225.3,96.5,225.4L96.5,225.4z M95.4,228.7c0.5,0,0.9-0.1,1.2-0.2c0.4-0.1,0.7-0.1,1.1-0.1c0.7,0,1.4,0.1,2.1,0.4
		v-0.9c-0.7-0.3-1.4-0.4-2.2-0.4c-0.5,0-0.9,0.1-1.3,0.2c-0.3,0.1-0.7,0.1-1.1,0.2c-0.7,0-1.4,0-2-0.1v0.9
		C94.1,228.7,94.8,228.8,95.4,228.7L95.4,228.7z M95.4,231.1c0.5,0,0.9-0.1,1.2-0.2c0.4-0.1,0.7-0.1,1.1-0.1c0.7,0,1.4,0.1,2.1,0.4
		v-0.9c-0.7-0.3-1.4-0.4-2.2-0.4c-0.5,0-0.9,0.1-1.3,0.2c-0.3,0.1-0.7,0.1-1.1,0.2c-0.7,0-1.4,0-2-0.1v0.9
		C94.1,231.1,94.8,231.1,95.4,231.1L95.4,231.1z M61.3,230.7h2.4v-2.5h-2.4V230.7z M68.2,226.5c0.3-1.1,0.9-2.2,1.7-3
		c0.1-0.2,1.4-1.7,1.4-2.6c0-1.6-1.3-2.9-2.9-2.9c-0.4,0-0.8,0.1-1.1,0.2c-0.1,0-0.2,0.1-0.3,0.2l-0.3,0.1c-1,0.4-2.1,0.6-3.2,0.6
		c0,0-0.1,0-0.1,0c-0.1,0-0.2,0-0.3,0c-0.5,0-1-0.1-1.5-0.3l-0.3-0.1v8h6.9L68.2,226.5z M52.5,230.7h2.4v-2.5h-2.4V230.7z M47,220.9
		c0,1.3,0.7,2.7,1.9,4c0,0,0.1,0.1,0.1,0.1c0.7,0.8,1.2,1.8,1.4,2.9c0,0.3,0.1,0.6,0.1,0.9c0,0.8-0.2,1.5-0.5,2.2v1.2h20.6v-1.2
		c-0.2-0.6-0.4-1.2-0.4-1.8v-0.6c0-0.2,0-0.4,0.1-0.6c0.2-1.1,0.6-2,1.4-2.8c0,0,0-0.1,0.1-0.1c1.2-1.3,1.9-2.7,1.9-4
		c0-2.8-2.3-5.1-5.1-5.1c-0.7,0-1.3,0.1-2,0.4c-0.2,0.1-0.4,0.2-0.6,0.3c-0.8,0.3-1.6,0.5-2.4,0.5h-0.1c-0.1,0-0.2,0-0.2,0
		c-1-0.1-1.9-0.6-2.3-1.5h-1.2c-0.5,0.9-1.3,1.4-2.3,1.5c-0.1,0-0.1,0-0.2,0l-0.1,0c-0.9,0-1.7-0.2-2.5-0.6c-0.1,0-0.2-0.1-0.3-0.1
		c-0.7-0.3-1.4-0.5-2.1-0.5C49.3,215.8,47,218.1,47,220.9L47,220.9z M58.5,212.7c0,1,0.8,1.8,1.8,1.8c1,0,1.8-0.8,1.8-1.8
		c0-1-0.8-1.8-1.8-1.8C59.3,211,58.5,211.8,58.5,212.7L58.5,212.7z M71.9,242.3c0-1.1-0.8-1.9-1.8-1.9c-0.6,0-1,0.3-1.2,0.5l0,0.2
		c0.1,0,0.2,0,0.3,0c0.9,0,1.5,1,1.5,2c0,0.7-0.3,1.5-1,1.5c-1,0-1.4-1.2-1.4-2.8c0-2.6,1.2-3.8,2.7-3.8c0.4,0,0.5,0,0.7,0.1
		l0.1-0.3c-0.2-0.1-0.5-0.2-1.1-0.2c-1.8,0-3.8,1.3-3.8,4.4c0,2.1,1.2,3.1,2.5,3.1C70.8,245,71.9,244.1,71.9,242.3L71.9,242.3z
		 M65.7,242.3c0-1.1-0.8-1.9-1.8-1.9c-0.6,0-1,0.3-1.2,0.5l0,0.2c0.1,0,0.2,0,0.3,0c0.9,0,1.5,1,1.5,2c0,0.7-0.3,1.5-1,1.5
		c-1,0-1.4-1.2-1.4-2.8c0-2.6,1.2-3.8,2.7-3.8c0.4,0,0.5,0,0.7,0.1l0.1-0.3c-0.2-0.1-0.5-0.2-1.1-0.2c-1.8,0-3.8,1.3-3.8,4.4
		c0,2.1,1.2,3.1,2.5,3.1C64.5,245,65.7,244.1,65.7,242.3L65.7,242.3z M59.7,237.9l-0.1-0.1H55c-0.3,0.6-0.4,1.2-0.5,1.9l0.3,0.1
		c0.3-0.9,0.2-0.9,1.5-0.9h2.2c-0.1,0.4-0.2,0.8-0.7,1.7c-1,1.6-2.4,3.1-2.5,3.9c0.3,0.4,0.6,0.6,1.1,0.8l0.1-0.1
		c0.4-1.6,0.5-1.7,1.1-3.1C58.8,239.6,59.3,239,59.7,237.9L59.7,237.9z M50,233.7h20.6v-0.7H50V233.7z M50,235.1h20.6v-0.7H50V235.1
		z M52.9,244.6l-0.7-0.1c-0.5-0.1-0.5-0.2-0.5-1.4v-5.4l-0.2-0.1c-0.2,0.1-2.2,0.8-2.7,1l0.1,0.3l0.7-0.1c0.1,0,0.2,0,0.4,0
		c0.2,0,0.3,0.1,0.3,1.5v3c0,1.2,0,1.3-0.5,1.4l-0.7,0.1v0.3h3.8V244.6z M40.6,200.6H80v77.2c-4.7-1-19.6-4.9-29.6-16.2
		c-6.3-7.1-9.6-15.8-9.9-26V200.6z M65.6,230.7h2.4v-2.5h-2.4V230.7z M52.3,226.5l0,0.2h6.9v-8l-0.3,0.1c-0.5,0.2-1,0.3-1.5,0.3
		c-0.1,0-0.2,0-0.3,0c0,0-0.1,0-0.1,0c-1.2,0-2.4-0.3-3.5-0.8c-0.1-0.1-0.2-0.1-0.3-0.2c-0.4-0.2-0.8-0.2-1.2-0.2
		c-1.6,0-2.9,1.3-2.9,2.9c0,1,0.2,1.3,1.4,2.6C51.4,224.3,52,225.4,52.3,226.5L52.3,226.5z M56.9,228.2v2.5h2.4v-2.2l0-0.2H56.9z
		 M40.5,190.2v7.8H49L40.5,190.2z M70.2,194.1l-5.2-21.7h-8.8l13.5,21.9C69.8,194.2,70,194.1,70.2,194.1L70.2,194.1z M64.9,196.8
		l-11.3-24.4H41.5l22.9,24.8C64.6,197,64.8,196.9,64.9,196.8L64.9,196.8z M58.6,198l-18-24.7v13.6L55.9,198H58.6z M75.8,192.4
		l-0.8-20h-7.3l7.4,20.2C75.4,192.5,75.6,192.5,75.8,192.4L75.8,192.4z M78,172.4l3.1,19.5c0.1,0,0.2,0,0.3,0c0.1,0,0.3,0,0.4,0
		l3.1-19.5H78z M113.8,198h8.4v-7.8L113.8,198z M93.2,194.3l13.5-21.9h-8.8l-5.2,21.7C92.8,194.1,93,194.2,93.2,194.3L93.2,194.3z
		 M98.4,197.1l22.9-24.8h-12.2l-11.3,24.4C98,196.9,98.2,197,98.4,197.1L98.4,197.1z M106.9,198l15.3-11.1v-13.6l-18,24.7H106.9z
		 M87.6,192.5c-0.2,0-0.4-0.1-0.6-0.1l0.8-20H95L87.6,192.5z"/>
	<path class="st1" d="M124.8,235.6c-0.1,6.2-1.4,12-3.6,17.1c-1.7,3.8-4,7.4-6.8,10.6c-12.7,14.3-32.1,17.3-32.9,17.4l-0.1,0l-0.1,0
		c0,0-0.1,0-0.3,0c-2.1-0.3-20.5-3.7-32.6-17.3c-6.7-7.6-10.3-16.9-10.5-27.8v-65.9h87V235.6z M35.5,167.4v68.3
		c0.3,11.4,4,21.3,11.1,29.2c12.7,14.2,31.8,17.7,34,18.1c0.2,0,0.3,0,0.3,0l0.4,0.1l0.4-0.1c0.9-0.1,21.1-3.2,34.4-18.1
		c3-3.4,5.4-7.2,7.2-11.2c2.4-5.4,3.7-11.5,3.8-18.1v-68.2H35.5z"/>
</g>
</svg>
